<?xml version="1.0" encoding="UTF-8"?>
<svg id="Livello_2" data-name="Livello 2" xmlns="http://www.w3.org/2000/svg" viewBox="0 0 375.79 414.57">
  <defs>
    <style>
      .cls-1 {
        fill: #094117;
      }
    </style>
  </defs>
  <g id="Livello_1-2" data-name="Livello 1">
    <g>
      <path class="cls-1" d="m311.44,370.15c4.19,5.13,5.71,11.64,8.1,17.54,3.84,9.51,1.8,17.32-7.55,23.13-9.14,5.68-16.58,4.97-23.67-2.56-3.9-4.14-7.77-8.21-9.82-13.68-.58-1.56-1.64-3.28-3.36-3.4-1.99-.13-2.3,2.13-3.14,3.46-.88,1.39-1.56,2.96-2.08,4.53-4.27,12.79-19.63,13.78-29.09,4.75-3.31-3.16-3.55-8.45-4.11-13.1-1.13-9.3,2.43-17.72,5.13-26.23,9.17-28.95,12.54-58.45,5.32-88.09-2.63-10.79-8.59-20.78-18.51-28.18-14.52-10.84-31.26-16.69-47.27-24.34-14.7-7.02-29.73-13.25-44.49-20.11-13.84-6.43-28.03-12.23-42.1-18.19-11.59-4.91-22.22-12.05-33.57-17.61-11.94-5.85-21.78-14.66-32.36-22.33-7.12-5.16-13.92-11.33-18.12-19.63-2.45-4.84-6.37-8.74-8.15-14.14-4.27-12.92-3.83-24.52,5.89-35.25,10.29-11.35,23.9-14.58,37.9-16.59,24.07-3.45,47.87-.61,71.2,5.54,11.55,3.05,22.76,7.44,34.04,11.46,3.36,1.2,5.46.39,8.51-1.46,7.35-4.45,10.24-10.9,11.33-18.85.4-2.95,1.14-5.93,2.21-8.7,5.76-14.91-5.24-24.33-17.05-26.82-16.81-3.55-36.97,11.31-35.59,30.27.21,2.82-.13,5.69.19,8.49.4,3.49-1.03,3.93-4,3.28-14.1-3.09-16.92-6.37-13.71-23.07C108.3,15.32,127.04,2.48,149.17.27c18.01-1.8,32.87,5.36,43.85,19.81,2.15,2.82,3.38,3.38,6.7,1.71,15.23-7.64,31.6-9.61,47.56-4.27,20.15,6.74,35.02,21.02,36.95,47.06.9,12.14-1.66,23.38-7.93,33.36-7.52,11.98-17.97,20.99-32.35,24.03-4.13.87-4.64,2.65-1.79,5.04,7.1,5.95,12.02,13.78,17.59,20.9,7.01,8.96,13.07,18.83,17.45,29.51.31.77.46,1.6.71,2.4,3.06,9.66,4.09,10.01,11.26,3.55,13.98-12.62,30.52-20.34,49.1-20.96,24.54-.81,39.51,16.19,37.29,41.76-2.11,24.32-14.12,44.66-26.87,64.78-5.27,8.32-11.08,16.22-17.2,23.77-5.25,6.49-9.85,13.79-16.76,18.86-4.4,3.23-4.06,8.17-4.53,12.69-.43,4.12-.03,8.33-.2,12.49-.11,2.9,1.29,4.18,3.93,4.81,9.69,2.28,19.07,5.7,29.32,5.45,11.34-.28,17.41,7.5,21.39,16.65,3.65,8.37,0,15.93-5.91,21.83-6.65,6.63-15.34,5.92-23.5,3.63-6.43-1.8-12.03-5.57-16.41-10.91-2.31-2.81-4.92-5.38-7.39-8.05ZM222.58,97.9c17.64.37,30.24-12.42,30.1-31.09-.11-16.06-12.93-30.24-27.92-29.2-19.01,1.33-29.95,12.23-30.48,31.03-.41,14.87,12.02,30.21,28.29,29.26Z"/>
      <path class="cls-1" d="m193.76,377.24c-9.14.39-13.01-5.45-16.43-11.38-2.19-3.81-3.33-4.65-5.36-.08-1.64,3.7-4.59,6.53-7.3,9.46-3.31,3.58-14.28,3.07-18.02-.92-4.81-5.13-8.35-10.81-6.41-18.44.56-2.22.37-4.63.45-6.96.04-1.16.11-2.57-1.29-2.93-1.39-.36-2.57.41-3.43,1.56-.2.26-.35.56-.52.85-4.73,7.91-6.97,9.18-13.95,7.91-7.78-1.43-13.11-6.79-14.5-14.61-1.24-6.96,1.41-12.36,6.99-16.29,5.45-3.85,11.49-4.98,17.86-5.47,2.64-.2,5.32-.48,7.88-1.14,10.25-2.64,12.65-11,6.14-19.31-7.28-9.29-16.72-16.18-25.42-23.88-7.97-7.05-15.65-14.32-23.13-21.93-8.34-8.48-14.49-18.04-19.71-28.43-3.49-6.95-5.44-14.34-4.79-22.18.55-6.56,4.14-11.46,9.23-15.38,1.92-1.48,4-1.49,6.15-.7,18.6,6.77,37.07,13.62,54.38,23.61,7.05,4.07,13.35,8.76,19.01,14.15,5.77,5.5,11.44,11.43,14.94,18.95,2.1,4.52,5.56,8.25,7.54,12.91,5,11.75,7.51,24.17,9.29,36.64,2.73,19.2,8.52,37.63,13,56.38,1.74,7.26,1.77,14.03-2.05,20.73-2.62,4.6-5.67,7.86-10.55,6.91Z"/>
      <circle class="cls-1" cx="223.48" cy="67.75" r="7.28"/>
      <circle class="cls-1" cx="147.36" cy="49.37" r="7.28"/>
    </g>
  </g>
</svg>